<svg xmlns="http://www.w3.org/2000/svg" viewBox="0 0 369.33 41.22"><defs><style>.cls-1{fill:#a383ea;}</style></defs><title>Asset 10</title><g id="Layer_2" data-name="Layer 2"><g id="Layer_1-2" data-name="Layer 1"><path class="cls-1" d="M13.24,23.77H7.08l-.82,2.88H0L7,1.73,7,1.55h6.37l-.05.18,7,24.92H14.05Zm-4.46-6h2.76l-1.38-4.9Z"/><path class="cls-1" d="M62.78,17.75c0,1.15,0,2.3,0,3.45h0a18.76,18.76,0,0,1-3.34,9.92l0,0A18.83,18.83,0,0,1,25.14,20.26V18.84A18.84,18.84,0,0,1,60.56,9.9L55,13.1a12.44,12.44,0,0,0-23.48,5.74v1.42a12.43,12.43,0,0,0,23.34,6,12.94,12.94,0,0,0,.9-2.19H43.19v-6.4h19.6S62.78,17.72,62.78,17.75Z"/><path class="cls-1" d="M87.4,1V15.61c0,4.22-2.64,10.5-9.9,10.5s-9.9-6.28-9.9-10.5V1H74V15.61a6.6,6.6,0,0,0,.6,2.44,3.36,3.36,0,0,0,5.8,0,6.69,6.69,0,0,0,.6-2.47V1Z"/><path class="cls-1" d="M105.5,23.77H99.34l-.81,2.88H92.26l7-24.92-.05-.18h6.36l0,.18,7,24.92h-6.26Zm-4.46-6h2.76l-1.38-4.9Z"/><path class="cls-1" d="M160.87,37a21.39,21.39,0,0,1-12.1,4.12,15.15,15.15,0,0,1-5.43-1,22.45,22.45,0,0,1-5.88-3.65,63.36,63.36,0,0,1-9.66-9.78c-.56,0-1.12.05-1.67.05-.81,0-1.58,0-2.33-.07V38.81h-6.4V1.27h6.4v.1a31.36,31.36,0,0,1,6,.31c5,.83,9.09,4,10.55,8.33a12.56,12.56,0,0,1-5,14.51c-.25.16-.5.3-.76.44a56.29,56.29,0,0,0,6.86,6.6,15.88,15.88,0,0,0,4.14,2.64c3.28,1.27,7.6.36,11.56-2.41Zm-26.55-25c-.84-2.46-3.41-3.72-5.53-4.07a26.26,26.26,0,0,0-5-.22V20.32c3.25.18,6.1.12,8.16-1.19A6.12,6.12,0,0,0,134.32,12.06Z"/><path class="cls-1" d="M152,7.38v4.34h9.55v5.69H152v3.48h11.46v5.68H146.29V1.69h17.15V7.38Z"/><path class="cls-1" d="M195.84,32.71v6.4h-27.6V.89h6.4V32.71Z"/><path class="cls-1" d="M197.92,23.77h-6.16L191,26.65h-6.27l7-24.92-.05-.18H198l-.06.18,7,24.92h-6.26Zm-4.46-6h2.76l-1.38-4.9Z"/><path class="cls-1" d="M239.63,19.76c0,11.16-7.34,18.66-18.25,18.66H207.89V1.09h13.49C232.29,1.09,239.63,8.59,239.63,19.76ZM214.47,32h6.86c7,0,11.56-4.82,11.56-12.28S228.24,7.47,221.33,7.47h-6.86Z"/><path class="cls-1" d="M244.44,25.89V.89h6.4v25Z"/><path class="cls-1" d="M291.44,19.17c0,1.16,0,2.3,0,3.45h0a18.76,18.76,0,0,1-3.34,9.92l0,0A18.83,18.83,0,0,1,253.8,21.68V20.26a18.84,18.84,0,0,1,35.43-8.94l-5.55,3.2a12.44,12.44,0,0,0-23.48,5.74v1.42a12.43,12.43,0,0,0,23.34,6,11.92,11.92,0,0,0,.91-2.19h-12.6v-6.4h19.6S291.44,19.14,291.44,19.17Z"/><path class="cls-1" d="M296.26,28V3h6.4V28Z"/><path class="cls-1" d="M330.4,8.32h-8.24V40.53h-6.4V8.32h-8.24V1.92H330.4Z"/><path class="cls-1" d="M348.45,25.19h-6.16l-.81,2.89h-6.27l7-24.93L342.19,3h6.36l-.05.18,7,24.93h-6.27Zm-4.46-6h2.76l-1.38-4.9Z"/><path class="cls-1" d="M362.93,34.82V3h6.4V41.22h-27.6v-6.4Z"/><circle class="cls-1" cx="247.64" cy="30.88" r="3.31"/><circle class="cls-1" cx="299.46" cy="32.73" r="3.31"/></g></g></svg>