<svg xmlns="http://www.w3.org/2000/svg" viewBox="0 0 175.78 25.24"><defs><style>.cls-1{fill:#1f140f;stroke:#1f140f;stroke-miterlimit:10;stroke-width:0.5px;}</style></defs><title>aguarela-logo</title><g id="Layer_2" data-name="Layer 2"><g id="Camada_1" data-name="Camada 1"><path class="cls-1" d="M10.63.54,19.39,24.7H18l-4.36-12L9.93,2.59,1.81,24.7H.36L9.23.54Z"/><path class="cls-1" d="M45.5,21.69A11.45,11.45,0,0,1,37.28,25a11.93,11.93,0,0,1-8.76-3.61,11.93,11.93,0,0,1-3.61-8.76,11.93,11.93,0,0,1,3.61-8.74,12.36,12.36,0,0,1,17.08-.4l-1,.92a11,11,0,0,0-15,.46,10.55,10.55,0,0,0-3.22,7.76,10.59,10.59,0,0,0,3.22,7.78,11,11,0,0,0,14.64.82V13.85H45.5Z"/><path class="cls-1" d="M67.38.54h1.37V17.9a8,8,0,0,1-2.31,4.7,7.89,7.89,0,0,1-11.16,0A7.61,7.61,0,0,1,53,17V.54h1.36V17a6.52,6.52,0,0,0,13,0Z"/><path class="cls-1" d="M85.11.54,93.88,24.7H92.44l-4.35-12L84.41,2.59,76.3,24.7H74.84L83.71.54Z"/><path class="cls-1" d="M105.92,16.33h-4.51V24.7H100V.54h6.34a8,8,0,0,1,4.7,2.31,7.61,7.61,0,0,1,2.31,5.57A7.59,7.59,0,0,1,111.08,14a7.57,7.57,0,0,1-3.67,2.11L113,24.7H111.3ZM101.41,1.92v13h4.1a6.29,6.29,0,0,0,4.6-1.9A6.3,6.3,0,0,0,112,8.42a6.5,6.5,0,0,0-6.51-6.5Z"/><path class="cls-1" d="M132.71.54V1.91H122v10h10.71V13.3H122v10h10.71V24.7H120.63V.54Z"/><path class="cls-1" d="M140.74,24.7V.54h1.36V23.33h9.21V24.7Z"/><path class="cls-1" d="M166.65.54l8.77,24.16H174l-4.35-12L166,2.59,157.84,24.7h-1.46L165.25.54Z"/></g></g></svg>