<svg xmlns="http://www.w3.org/2000/svg" viewBox="0 0 150 149.91"><defs><style>.cls-1{fill:#2c1a9f;}</style></defs><title>Asset 7</title><g id="Layer_2" data-name="Layer 2"><g id="Camada_1" data-name="Camada 1"><path class="cls-1" d="M93.17,62A36.57,36.57,0,0,0,79,64.86a2.93,2.93,0,1,0,2.25,5.4A31,31,0,1,1,64.49,87a2.93,2.93,0,1,0-5.41-2.26A36.92,36.92,0,1,0,93.17,62Z"/><path class="cls-1" d="M93.17,123a24,24,0,1,0-24-24A24,24,0,0,0,93.17,123Zm0-42.18A18.16,18.16,0,1,1,75,98.93,18.19,18.19,0,0,1,93.17,80.77Z"/><path class="cls-1" d="M135.14,48h-8.91L116,30.64a2.94,2.94,0,0,0-2.52-1.44H72.85a2.94,2.94,0,0,0-2.52,1.44L60.1,48H43.36V44.44a10.55,10.55,0,1,0-21.09,0V48H14.86A14.88,14.88,0,0,0,0,62.81v72.24a14.88,14.88,0,0,0,14.86,14.86H135.14A14.88,14.88,0,0,0,150,135.05V62.81A14.88,14.88,0,0,0,135.14,48ZM74.53,35.06h37.28L119.42,48H66.91Zm-46.4,9.38a4.69,4.69,0,1,1,9.37,0V48H28.13Zm116,90.61a9,9,0,0,1-9,9H14.86a9,9,0,0,1-9-9V62.81a9,9,0,0,1,9-9H135.14a9,9,0,0,1,9,9v72.24Z"/><path class="cls-1" d="M93.17,93.22a5.71,5.71,0,0,1,5.71,5.71,2.93,2.93,0,1,0,5.86,0A11.58,11.58,0,0,0,93.17,87.36a2.93,2.93,0,0,0,0,5.86Z"/><path class="cls-1" d="M93.17,21.5a2.94,2.94,0,0,0,2.93-2.93V2.93a2.93,2.93,0,1,0-5.86,0V18.57A2.93,2.93,0,0,0,93.17,21.5Z"/><path class="cls-1" d="M107.11,21.5a2.92,2.92,0,0,0,2.07-.86L119.93,9.89a2.93,2.93,0,0,0-4.15-4.14L105,16.49a2.94,2.94,0,0,0,2.07,5Z"/><path class="cls-1" d="M77.15,20.64a2.93,2.93,0,0,0,4.15-4.15L70.55,5.75A2.93,2.93,0,1,0,66.4,9.89Z"/><path class="cls-1" d="M40.43,72H25.2a2.93,2.93,0,0,0,0,5.86H40.43a2.93,2.93,0,0,0,0-5.86Z"/><path class="cls-1" d="M69.13,77.84a2.94,2.94,0,0,0,2.93-2.93,2.93,2.93,0,1,0-5,2.07A3,3,0,0,0,69.13,77.84Z"/></g></g></svg>