<svg xmlns="http://www.w3.org/2000/svg" viewBox="0 0 150 150"><defs><style>.cls-1{fill:#2c1a9f;}</style></defs><title>Asset 6</title><g id="Layer_2" data-name="Layer 2"><g id="Camada_1" data-name="Camada 1"><path class="cls-1" d="M41.75,126.94a2.82,2.82,0,1,0-2.81-2.82A2.82,2.82,0,0,0,41.75,126.94Z"/><path class="cls-1" d="M101.37,93.46a2.93,2.93,0,0,0-2.93,2.93V116.6a14.66,14.66,0,0,1-14.65,14.65H52.16a2.93,2.93,0,0,0-2.93,2.93V140l-7-7a2.93,2.93,0,0,0-2.69-1.76h-19A14.66,14.66,0,0,1,5.86,116.6V71.48A14.66,14.66,0,0,1,20.51,56.84H50.1a2.93,2.93,0,0,0,0-5.86H20.51A20.53,20.53,0,0,0,0,71.48V116.6a20.53,20.53,0,0,0,20.51,20.51H38l12,12a2.93,2.93,0,0,0,5-2.07v-10h28.7A20.53,20.53,0,0,0,104.3,116.6V96.39A2.93,2.93,0,0,0,101.37,93.46Z"/><path class="cls-1" d="M107.42,0H100a42.58,42.58,0,0,0,0,85.16h7.42a42.73,42.73,0,0,0,10.81-1.38l11,10.94a2.93,2.93,0,0,0,5-2.07v-17a42.84,42.84,0,0,0,11.19-13.8A42.13,42.13,0,0,0,150,42.58,42.63,42.63,0,0,0,107.42,0Zm22.07,71.93a2.93,2.93,0,0,0-1.17,2.34V85.58l-7.17-7.16a2.91,2.91,0,0,0-2.07-.86,2.8,2.8,0,0,0-.86.13,36.79,36.79,0,0,1-10.8,1.61H100a36.72,36.72,0,0,1,0-73.44h7.42a36.72,36.72,0,0,1,22.07,66.07Z"/><path class="cls-1" d="M116.9,32.06a12.4,12.4,0,0,0-24.77.87,2.93,2.93,0,1,0,5.86,0,6.56,6.56,0,0,1,7-6.53,6.55,6.55,0,0,1,1,12.92,5.54,5.54,0,0,0-4.37,5.43v7a2.93,2.93,0,1,0,5.86,0V45A12.33,12.33,0,0,0,116.9,32.06Z"/><path class="cls-1" d="M106.6,61.31a2.92,2.92,0,0,0-4.14,0,2.92,2.92,0,0,0,0,4.14,2.93,2.93,0,1,0,4.14-4.14Z"/><path class="cls-1" d="M80.57,90.82H18.75a2.93,2.93,0,1,0,0,5.86H80.57a2.93,2.93,0,0,0,0-5.86Z"/><path class="cls-1" d="M82.64,108.08a2.93,2.93,0,0,0-5,2.08,2.94,2.94,0,0,0,2.93,2.93,2.93,2.93,0,0,0,2.07-5Z"/><path class="cls-1" d="M69,107.23H18.75a2.93,2.93,0,0,0,0,5.86H69a2.93,2.93,0,1,0,0-5.86Z"/><path class="cls-1" d="M61.52,74.41H18.75a2.93,2.93,0,0,0,0,5.86H61.52a2.93,2.93,0,0,0,0-5.86Z"/></g></g></svg>