<svg xmlns="http://www.w3.org/2000/svg" viewBox="0 0 150 150"><defs><style>.cls-1{fill:#2c1a9f;}</style></defs><title>Asset 5</title><g id="Layer_2" data-name="Layer 2"><g id="Camada_1" data-name="Camada 1"><rect class="cls-1" x="12.5" y="15" width="32.5" height="5"/><rect class="cls-1" x="12.5" y="25" width="32.5" height="5"/><rect class="cls-1" x="12.5" y="35" width="22.5" height="5"/><rect class="cls-1" x="12.5" y="45" width="22.5" height="5"/><rect class="cls-1" y="145" width="150" height="5"/><path class="cls-1" d="M144.73,21.38l-10-20A2.5,2.5,0,0,0,131.38.26h0l-20,10a2.5,2.5,0,1,0,2.24,4.48L128.1,7.5l-3.95,11.29A133.42,133.42,0,0,1,9.79,107.5l.42,5A138.43,138.43,0,0,0,128.87,20.44l4-11.53,7.36,14.71a2.5,2.5,0,1,0,4.47-2.24Z"/><path class="cls-1" d="M30,120H12.5a2.5,2.5,0,0,0-2.5,2.5v15a2.5,2.5,0,0,0,2.5,2.5H30a2.5,2.5,0,0,0,2.5-2.5v-15A2.5,2.5,0,0,0,30,120Zm-2.5,15H15V125H27.5Z"/><path class="cls-1" d="M57.5,112.5H40a2.5,2.5,0,0,0-2.5,2.5v22.5A2.5,2.5,0,0,0,40,140H57.5a2.5,2.5,0,0,0,2.5-2.5V115A2.5,2.5,0,0,0,57.5,112.5ZM55,135H42.5V117.5H55Z"/><path class="cls-1" d="M85,100H67.5a2.5,2.5,0,0,0-2.5,2.5v35a2.5,2.5,0,0,0,2.5,2.5H85a2.5,2.5,0,0,0,2.5-2.5v-35A2.5,2.5,0,0,0,85,100Zm-2.5,35H70V105H82.5Z"/><path class="cls-1" d="M112.5,82.5H95A2.5,2.5,0,0,0,92.5,85v52.5A2.5,2.5,0,0,0,95,140h17.5a2.5,2.5,0,0,0,2.5-2.5V85A2.5,2.5,0,0,0,112.5,82.5ZM110,135H97.5V87.5H110Z"/><path class="cls-1" d="M140,47.5H122.5A2.5,2.5,0,0,0,120,50v87.5a2.5,2.5,0,0,0,2.5,2.5H140a2.5,2.5,0,0,0,2.5-2.5V50A2.5,2.5,0,0,0,140,47.5ZM137.5,135H125V52.5h12.5Z"/></g></g></svg>