<svg xmlns="http://www.w3.org/2000/svg" viewBox="0 0 150 150.01"><defs><style>.cls-1{fill:#2c1a9f;}</style></defs><title>Asset 4</title><g id="Layer_2" data-name="Layer 2"><g id="Camada_1" data-name="Camada 1"><path class="cls-1" d="M.86,114,36,149.15a2.92,2.92,0,0,0,4.14,0L59.5,129.81a2.93,2.93,0,0,0,0-4.14l-.86-.86h42.23a14.63,14.63,0,0,0,10-3.92L146.4,87.58A11.31,11.31,0,0,0,132.7,69.7l-7.89,5.17c0-15.88-9.65-32.81-22.86-40.44a8.93,8.93,0,0,0,1.72-3,8.81,8.81,0,0,0-5.61-11.1l-.43-.13,7.54-13.55a2.93,2.93,0,0,0-1.74-4.24A60.06,60.06,0,0,0,70,2.37a2.93,2.93,0,0,0-1.74,4.24l7.54,13.55-.44.13a8.8,8.8,0,0,0-3.87,14.14C58.1,42.17,48.64,59.28,48.64,75c0,.42,0,.85,0,1.27a36,36,0,0,0-14.23,7.63l-8.9,7.79-1.19-1.19a2.93,2.93,0,0,0-4.14,0L.86,109.85A2.92,2.92,0,0,0,.86,114ZM75.25,7.09a54.14,54.14,0,0,1,23,0L91.67,18.81a35.61,35.61,0,0,0-9.89,0Zm2,18.77a30.24,30.24,0,0,1,19,0,2.93,2.93,0,0,1-.73,5.71,28.66,28.66,0,0,0-17.55,0h0a2.89,2.89,0,0,1-2.6-2A2.93,2.93,0,0,1,77.21,25.86Zm1.62,11.59a22.87,22.87,0,0,1,15.44-.12C107.88,42,119,58.91,119,75a28.22,28.22,0,0,1-.25,3.88l-14.08,9.23a11.67,11.67,0,0,0-9.11-4.33H89.65V80.36a8.79,8.79,0,0,0-2.93-17.07,2.93,2.93,0,1,1,0-5.86A4.7,4.7,0,0,1,89.89,59,2.93,2.93,0,1,0,94,54.75a11.3,11.3,0,0,0-4.32-2.7V48.64a2.93,2.93,0,0,0-5.86,0v3.43a8.79,8.79,0,0,0,2.93,17.08,2.93,2.93,0,1,1,0,5.86,5.3,5.3,0,0,1-3.8-2.22,2.93,2.93,0,1,0-4.48,3.77,12.18,12.18,0,0,0,5.35,3.82v3.41h-1c-1.44,0-2.09-.93-3.1-1.59A36.22,36.22,0,0,0,58.13,75c-1.21,0-2.43.06-3.63.18V75C54.5,59.13,65.41,42.29,78.83,37.45ZM38.29,88.32A30.14,30.14,0,0,1,76.2,86.89c.75.43,2.83,2.76,6.62,2.76H95.51a5.86,5.86,0,0,1,0,11.72H75a2.93,2.93,0,0,0,0,5.86h20.5a11.72,11.72,0,0,0,11.72-11.72,11.85,11.85,0,0,0-.17-2l28.77-18.88a5.45,5.45,0,0,1,6.57,8.64L106.86,116.6a8.77,8.77,0,0,1-6,2.35H52.78l-23.1-23.1Zm-16,8.41,31,31-15.19,15.2-31-31Z"/></g></g></svg>