<svg xmlns="http://www.w3.org/2000/svg" viewBox="0 0 150 150"><defs><style>.cls-1{fill:#2c1a9f;}</style></defs><title>Asset 3</title><g id="Layer_2" data-name="Layer 2"><g id="Camada_1" data-name="Camada 1"><path class="cls-1" d="M31.1,103a2.2,2.2,0,0,0,4.4,0V55.34h.42A12.47,12.47,0,0,0,48.38,42.89V30.29A12.47,12.47,0,0,0,35.92,17.83H35.5V11a6.61,6.61,0,0,1,6.6-6.6h8.31V11a5.13,5.13,0,0,0,5.13,5.12H94.25A5.13,5.13,0,0,0,99.38,11V4.39h8.4a6.6,6.6,0,0,1,6.59,6.6v7.72a2.2,2.2,0,0,0,4.4,0V11a11,11,0,0,0-11-11H42.1a11,11,0,0,0-11,11v6.84H12.46A12.47,12.47,0,0,0,0,30.29v12.6A12.47,12.47,0,0,0,12.46,55.34h2.69L21.59,64a2.49,2.49,0,0,0,4.49-1.49V55.34h5V103ZM95,4.39V11a.73.73,0,0,1-.73.73H55.54a.73.73,0,0,1-.73-.73V4.39ZM23.88,50.94a2.21,2.21,0,0,0-2.2,2.2v3.61L18,51.83a2.21,2.21,0,0,0-1.77-.89h-3.8a8.07,8.07,0,0,1-8.06-8V30.29a8.07,8.07,0,0,1,8.06-8.06H35.92A8.07,8.07,0,0,1,44,30.29v12.6a8.07,8.07,0,0,1-8.06,8Z"/><path class="cls-1" d="M137.54,74.71H118.77V28.09a2.2,2.2,0,0,0-4.4,0V74.71h-.29a12.47,12.47,0,0,0-12.46,12.45v12.6a12.47,12.47,0,0,0,12.46,12.45h.29v14.5h-9.93v-8.4a19,19,0,0,0-19-18.93H81.54V95.21A21.91,21.91,0,0,0,95.79,80.94a5.84,5.84,0,0,0,1.18.13c4.09,0,7.15-5.11,7.15-9.67a7.4,7.4,0,0,0-4.18-7c2-8.29.18-18.08-6.47-23.21a2.2,2.2,0,1,0-2.68,3.48c2.75,2.12,4.36,5.07,5.23,9.56a22.48,22.48,0,0,1-.6,10,5.83,5.83,0,0,0-2.48,3.36c-2.92-4.9-8.23-6.9-13.38-8.84-4.36-1.63-8.48-3.18-11.16-6.36-2.08-2.48-4.3-2.24-5.44-1.88-3.35,1.07-5.55,5.76-5.78,8.6-.07.8-.35,4.4-.71,7.36a5.15,5.15,0,0,0-2-2.24c-2-6.67-.83-15.12,4.31-19.36,3.38-2.79,8.82-4.2,16.17-4.2a41.47,41.47,0,0,1,8.16.72A2.2,2.2,0,1,0,84,37.09a45.79,45.79,0,0,0-9-.81c-8.51,0-14.72,1.71-19,5.22-4.41,3.64-5.78,8.51-6.43,11.85a26.27,26.27,0,0,0,.4,11,7.41,7.41,0,0,0-4.19,7c0,4.56,3.06,9.67,7.16,9.67a5.75,5.75,0,0,0,1.17-.13A21.92,21.92,0,0,0,68.35,95.21v4.17h-4a19,19,0,0,0-18.94,18.93v8.4H35.5V112.57a2.2,2.2,0,0,0-4.4,0V139a11,11,0,0,0,11,11h65.68a11,11,0,0,0,11-11v-26.8h5.15v7.17a2.49,2.49,0,0,0,4.49,1.49l6.44-8.66h2.69A12.47,12.47,0,0,0,150,99.76V87.16a12.47,12.47,0,0,0-12.46-12.45Zm-64.8,29.06h4.4v11.11a2.2,2.2,0,1,1-4.39,0V103.77ZM97,76.67a.92.92,0,0,1-.29,0c.17-1.72.09-2.71.11-5.44v0a6.27,6.27,0,0,1,.71-3c1.1.22,2.22,1.16,2.22,3.25C99.72,74.18,97.85,76.67,97,76.67Zm-44.06,0c-.89,0-2.76-2.49-2.76-5.27,0-2.09,1.12-3,2.22-3.25a6.14,6.14,0,0,1,.71,3v.07c0,2.7-.06,3.71.12,5.43A1,1,0,0,1,52.91,76.67Zm4.57-2.26V73.5a3.36,3.36,0,0,0,2.24-1.57c1.11-1.8,1.52-9.18,1.84-12.45.15-1.76,1.68-4.43,2.74-4.77.21-.07.58.34.74.52,3.41,4.06,8.27,5.88,13,7.65C83.47,64.93,88.19,66.7,90,71.54a3.13,3.13,0,0,0,2.43,2v.84a17.46,17.46,0,0,1-34.91,0ZM77.14,96.12v3.26h-4.4V96.12a22.31,22.31,0,0,0,4.4,0Zm-27.3,22.19a14.55,14.55,0,0,1,14.54-14.54h4v11.11a6.6,6.6,0,0,0,13.19,0V103.77h3.95A14.56,14.56,0,0,1,100,118.31v8.35H49.84Zm57.94,27.3H42.1a6.61,6.61,0,0,1-6.6-6.6V131.1h78.87V139A6.6,6.6,0,0,1,107.78,145.61ZM145.6,99.76a8.07,8.07,0,0,1-8.06,8.06h-3.8a2.23,2.23,0,0,0-1.77.88l-3.65,4.93V110a2.2,2.2,0,0,0-2.2-2.19h-12A8.07,8.07,0,0,1,106,99.76V87.16a8.07,8.07,0,0,1,8.06-8.06h23.46a8.07,8.07,0,0,1,8.06,8.06v12.6Z"/><path class="cls-1" d="M31.48,33.51l-8.4-5.06a3.58,3.58,0,0,0-5.4,3.08V41.64a3.57,3.57,0,0,0,5.4,3.08l8.4-5.06A3.59,3.59,0,0,0,31.48,33.51Zm-9.4,6.68V33l6,3.61Z"/><path class="cls-1" d="M135.34,85.69H117.16a2.2,2.2,0,0,0,0,4.4h18.18a2.2,2.2,0,0,0,0-4.4Z"/><path class="cls-1" d="M135.34,94.48H117.16a2.2,2.2,0,0,0,0,4.4h18.18a2.2,2.2,0,0,0,0-4.4Z"/></g></g></svg>