<svg xmlns="http://www.w3.org/2000/svg" viewBox="0 0 150 149.97"><defs><style>.cls-1{fill:#2c1a9f;}</style></defs><title>Asset 1</title><g id="Layer_2" data-name="Layer 2"><g id="Camada_1" data-name="Camada 1"><path class="cls-1" d="M142.15,57A35,35,0,0,0,87.94,12.81a17.92,17.92,0,0,1-18.45,6.34,44.82,44.82,0,0,0-17.74-1.27A45.37,45.37,0,0,0,12.92,56.35a44.77,44.77,0,0,0,4.3,26.16,17.48,17.48,0,0,0-2,34.81L17.92,145a5,5,0,0,0,5,5H37.5a5,5,0,0,0,3.8-1.74A5.14,5.14,0,0,0,42.4,144l-6.69-26.5H37a63.51,63.51,0,0,1,8.27.6A54.86,54.86,0,0,0,95.07,150c1.65,0,3.32-.07,5-.22a55.4,55.4,0,0,0,49.74-50.28,54.69,54.69,0,0,0-8.18-33.56A7.63,7.63,0,0,1,142.15,57ZM15,112.24a12.5,12.5,0,0,1,0-24.5ZM37.5,145l-14.59-.25-2.65-27.25H30.55ZM20,112.49v-25h5v25Zm17,0H30v-25h7A67,67,0,0,0,58.29,84L70,80.13v39.72L58.29,116A67,67,0,0,0,37,112.49ZM144.81,99.07a49.91,49.91,0,0,1-93.44,20.12c1.8.43,3.58.91,5.34,1.5l27.5,9.16A2.28,2.28,0,0,0,85,130a2.5,2.5,0,0,0,2.5-2.5V115a10,10,0,0,0,10-10V95a10,10,0,0,0-10-10V72.5A2.5,2.5,0,0,0,85,70a2.34,2.34,0,0,0-.79.13L56.71,79.29A62.56,62.56,0,0,1,37,82.5h-14A40,40,0,0,1,68.14,24a22.91,22.91,0,0,0,23.67-8,30,30,0,0,1,46.45,37.89,12.64,12.64,0,0,0-.89,14.69A49.6,49.6,0,0,1,144.81,99.07ZM75,121.52V78.46L82.49,76V124ZM87.49,110V90a5,5,0,0,1,5,5v10A5,5,0,0,1,87.49,110Z"/><rect class="cls-1" x="35" y="102.49" width="10" height="5"/><rect class="cls-1" x="35" y="92.49" width="10" height="5"/><path class="cls-1" d="M127.06,33.62a2.55,2.55,0,0,0-.7-.69l-15-10A2.5,2.5,0,0,0,107.48,25V45a2.5,2.5,0,0,0,3.89,2.08l15-10A2.51,2.51,0,0,0,127.06,33.62Zm-14.58,6.72V29.69l8,5.32Z"/><path class="cls-1" d="M115,12.52A22.49,22.49,0,1,0,137.47,35,22.49,22.49,0,0,0,115,12.52Zm0,40A17.5,17.5,0,1,1,132.47,35,17.51,17.51,0,0,1,115,52.51Z"/><path class="cls-1" d="M65,45H62.5a2.5,2.5,0,0,1-2.5-2.5V35a7.5,7.5,0,0,0-15,0v7.5A2.5,2.5,0,0,1,42.5,45a2.5,2.5,0,0,0-2.5-2.5H30a2.5,2.5,0,0,0-2.5,2.5V72.5A2.5,2.5,0,0,0,30,75H40a2.5,2.5,0,0,0,2.5-2.5H65a7.5,7.5,0,0,0,7.5-7.5V52.51A7.5,7.5,0,0,0,65,45ZM37.5,70h-5V47.51h5Zm30-5A2.5,2.5,0,0,1,65,67.5H42.5V50a7.5,7.5,0,0,0,7.5-7.5V35a2.5,2.5,0,1,1,5,0v7.5A7.5,7.5,0,0,0,62.5,50H65a2.5,2.5,0,0,1,2.5,2.5Z"/><path class="cls-1" d="M137.77,90.75l-1.06-1.07a7.52,7.52,0,0,0-9.46-.94l-2.7,1.81-2.71-1.81a7.52,7.52,0,0,0-9.46.94l-1.07,1.07a7.51,7.51,0,0,0,0,10.6l11.47,11.46a2.5,2.5,0,0,0,3.53,0l11.46-11.46A7.49,7.49,0,0,0,137.77,90.75Zm-3.53,7.06h0l-9.69,9.69-9.7-9.68a2.52,2.52,0,0,1,0-3.54l1.07-1.06a2.49,2.49,0,0,1,3.15-.32l4.09,2.73a2.51,2.51,0,0,0,2.78,0L130,92.91a2.51,2.51,0,0,1,3.16.31h0l1.06,1.07A2.49,2.49,0,0,1,134.24,97.81Z"/><rect class="cls-1" x="93.59" y="70" width="10.3" height="5" transform="translate(4.43 150.68) rotate(-75.95)"/><rect class="cls-1" x="101.89" y="77.5" width="11.18" height="5" transform="translate(-24.43 56.51) rotate(-26.57)"/><rect class="cls-1" x="96.22" y="124.83" width="5" height="10.3" transform="translate(-28.57 27.82) rotate(-14.03)"/><rect class="cls-1" x="104.98" y="116.89" width="5" height="11.18" transform="translate(-50.14 163.84) rotate(-63.43)"/><path class="cls-1" d="M2.51,67.5h5c0-33.91,20.11-55,52.49-55v-5C24.54,7.52,2.51,30.51,2.51,67.5Z"/></g></g></svg>